
<svg width="18px" height="18px" viewBox="0 0 18 18" version="1.1" xmlns="http://www.w3.org/2000/svg" xmlns:xlink="http://www.w3.org/1999/xlink">
    <path d="M5.80078125,4.0640625 L3.69140625,4.0640625 C3.40017187,4.0640625 3.1640625,4.30017188 3.1640625,4.59140625 C3.1640625,4.88264063 3.40017187,5.11875 3.69140625,5.11875 L5.80078125,5.11875 C6.09201563,5.11875 6.328125,4.88264063 6.328125,4.59140625 C6.328125,4.30017188 6.09201563,4.0640625 5.80078125,4.0640625 Z" id="Path" fill="#B3C1CE" fill-rule="nonzero"></path>
    <path d="M5.80078125,7.228125 L3.69140625,7.228125 C3.40017187,7.228125 3.1640625,7.46423438 3.1640625,7.75546875 C3.1640625,8.04670313 3.40017187,8.2828125 3.69140625,8.2828125 L5.80078125,8.2828125 C6.09201563,8.2828125 6.328125,8.04670313 6.328125,7.75546875 C6.328125,7.46423438 6.09201563,7.228125 5.80078125,7.228125 Z" id="Path" fill="#B3C1CE" fill-rule="nonzero"></path>
    <path d="M6.92578125,10.4625 L3.69140625,10.4625 C3.40017187,10.4625 3.1640625,10.6986094 3.1640625,10.9898438 C3.1640625,11.2810781 3.40017187,11.5171875 3.69140625,11.5171875 L6.92578125,11.5171875 C7.21701563,11.5171875 7.453125,11.2810781 7.453125,10.9898438 C7.453125,10.6986094 7.21701563,10.4625 6.92578125,10.4625 Z" id="Path" fill="#B3C1CE" fill-rule="nonzero"></path>
    <path d="M15.3632812,0 L2.63671875,0 C1.76438672,0 1.0546875,0.709699219 1.0546875,1.58203125 L1.0546875,14.8359375 L0.52734375,14.8359375 C0.236109375,14.8359375 0,15.0720469 0,15.3632812 L0,15.890625 C0,17.0537344 0.946265625,18 2.109375,18 L13.78125,18 C14.9443594,18 15.890625,17.0537344 15.890625,15.890625 L15.890625,4.21875 L17.4726562,4.21875 C17.7638906,4.21875 18,3.98264063 18,3.69140625 L18,2.63671875 C18,1.18283203 16.817168,0 15.3632812,0 Z M2.109375,16.9453125 C1.52782031,16.9453125 1.0546875,16.4721797 1.0546875,15.890625 L11.671875,15.890625 C11.671875,16.2745312 11.7750234,16.6348828 11.9549531,16.9453125 L2.109375,16.9453125 Z M14.8359375,3.69140625 L14.8359375,15.890625 C14.8359375,16.4721797 14.3628047,16.9453125 13.78125,16.9453125 C13.1996953,16.9453125 12.7265625,16.4721797 12.7265625,15.890625 L12.7265625,15.3632812 C12.7265625,15.0720469 12.4904531,14.8359375 12.1992188,14.8359375 L2.109375,14.8359375 L2.109375,1.58203125 C2.109375,1.29125391 2.34594141,1.0546875 2.63671875,1.0546875 L14.8359375,1.0546875 L14.8359375,3.69140625 Z M16.9453125,3.1640625 L15.890625,3.1640625 L15.890625,1.14503906 C16.5044883,1.36269141 16.9453125,1.94920313 16.9453125,2.63671875 L16.9453125,3.1640625 Z" id="Shape" fill="#B3C1CE" fill-rule="nonzero"></path>
    <path d="M10.6171875,3.009375 C8.87252344,3.009375 7.453125,4.42877344 7.453125,6.1734375 C7.453125,7.10841797 7.86090234,7.94984766 8.5078125,8.52960937 L8.5078125,12.0445312 C8.5078125,12.2390156 8.61486328,12.4177148 8.78632031,12.5094727 C8.95777734,12.6012305 9.16586719,12.5911758 9.32765625,12.4833164 L10.6171875,11.6236406 L11.9067188,12.4833164 C11.9949609,12.5421328 12.0969492,12.571875 12.1992539,12.571875 C12.2845781,12.571875 12.3700781,12.5512031 12.4480547,12.5094727 C12.6195117,12.4177148 12.7265625,12.2390156 12.7265625,12.0445312 L12.7265625,8.52960937 C13.3734727,7.94984766 13.78125,7.10841797 13.78125,6.1734375 C13.78125,4.42877344 12.3618516,3.009375 10.6171875,3.009375 Z M11.671875,11.0591719 L10.9096875,10.5510586 C10.7325352,10.4330039 10.5018047,10.4330039 10.3246523,10.5510586 L9.5625,11.0591719 L9.5625,9.15651562 C9.89254687,9.27355078 10.2475195,9.3375 10.6171875,9.3375 C10.9868555,9.3375 11.3418281,9.27355078 11.671875,9.15651562 L11.671875,11.0591719 Z M10.6171875,8.2828125 C9.45407812,8.2828125 8.5078125,7.33654687 8.5078125,6.1734375 C8.5078125,5.01032812 9.45407812,4.0640625 10.6171875,4.0640625 C11.7802969,4.0640625 12.7265625,5.01032812 12.7265625,6.1734375 C12.7265625,7.33654687 11.7802969,8.2828125 10.6171875,8.2828125 Z" id="Shape" fill="#B3C1CE" fill-rule="nonzero"></path>
</svg>
