
<svg width="14px" height="14px" viewBox="0 0 14 14" version="1.1" xmlns="http://www.w3.org/2000/svg" xmlns:xlink="http://www.w3.org/1999/xlink">
    <path d="M-1.3,6.5 L15.0426407,6.5 C15.42924,6.5 15.7426407,6.81340068 15.7426407,7.2 C15.7426407,7.58659932 15.42924,7.9 15.0426407,7.9 L-1.3,7.9 C-1.68659932,7.9 -2,7.58659932 -2,7.2 C-2,6.81340068 -1.68659932,6.5 -1.3,6.5 Z" id="Rectangle-Copy-20" transform="translate(6.871320, 7.200000) rotate(-315.000000) translate(-6.871320, -7.200000) "></path>
    <path d="M-1.3,6.5 L15.0426407,6.5 C15.42924,6.5 15.7426407,6.81340068 15.7426407,7.2 C15.7426407,7.58659932 15.42924,7.9 15.0426407,7.9 L-1.3,7.9 C-1.68659932,7.9 -2,7.58659932 -2,7.2 C-2,6.81340068 -1.68659932,6.5 -1.3,6.5 Z" id="Rectangle-Copy-20" transform="translate(6.871320, 7.200000) scale(-1, 1) rotate(-315.000000) translate(-6.871320, -7.200000) "></path>
</svg>
