<?xml version="1.0" encoding="UTF-8"?>
<svg width="28px" height="27px" viewBox="0 0 28 27" version="1.1" xmlns="http://www.w3.org/2000/svg" xmlns:xlink="http://www.w3.org/1999/xlink">
    <title>Icons/Notifications-ringing-thick</title>
    <g id="1.0-Style-Guide" stroke="none" stroke-width="1" fill="none" fill-rule="evenodd">
        <g id="Icons" transform="translate(-511.000000, -208.000000)" fill-rule="nonzero">
            <g id="Group" transform="translate(515.000000, 212.000000)">
                <g id="Group-15" transform="translate(11.000000, 10.500000) scale(-1, 1) rotate(-345.000000) translate(-11.000000, -10.500000) translate(-3.000000, -2.000000)">
                    <g id="Group-2-Copy" transform="translate(4.644403, 2.396951)" stroke="#4A5B6D" stroke-width="1.4">
                        <path d="M12.9379704,18.0005344 C12.6915669,19.9733145 11.0086221,21.4997052 8.96901857,21.4997052 C6.92941509,21.4997052 5.24647025,19.9733145 5.00006671,18.0005344 Z" id="Path-3"></path>
                        <path d="M11.5288609,2.06505615 C11.5977079,2.40734389 11.5950243,2.74740859 11.5310955,3.06980558 C13.7091825,3.9834454 15.2303705,6.06530853 15.2303705,8.48713896 L15.2303705,10.7424885 C15.2303705,11.9606103 15.7958089,13.1160358 16.7738405,13.8961408 L17.199126,14.2353169 C17.7066442,14.6401013 18,15.2396549 18,15.8717558 L18,15.8929971 C18,17.0566451 17.013924,18 15.7974178,18 L2.20258217,18 C0.986076076,18 0,17.0566451 0,15.8929971 C0,15.2487339 0.30479689,14.6390735 0.828940301,14.2346317 L1.2656669,13.8975112 C2.27587647,13.1180914 2.8633032,11.9431376 2.8633032,10.7015476 L2.8633032,8.48713896 C2.8633032,6.09389675 4.34869383,4.03264299 6.48562767,3.10112367 C6.48299664,3.09465905 6.48125851,3.08623903 6.47955993,3.07780099 C6.19929465,1.68580712 7.10259176,0.330578588 8.49684819,0.0508788228 C9.89110455,-0.22882087 11.2485956,0.672779412 11.5288609,2.06505615 Z" id="Path-2"></path>
                    </g>
                    <path d="M0.889013351,8.96759063 C0.590843351,8.96759063 0.318143351,8.76860063 0.237413351,8.46692063 C-0.238956649,6.68627063 0.00656335127,4.82669063 0.928793351,3.23063063 C1.84598335,1.64321063 3.32558335,0.504350634 5.09489335,0.0237506341 C5.45462335,-0.0738993659 5.82551335,0.138410634 5.92325335,0.498230634 C6.02099335,0.857960634 5.80859335,1.22885063 5.44877335,1.32659063 C4.02560335,1.71314063 2.83553335,2.62925063 2.09771335,3.90608063 C1.35584335,5.18993063 1.15838335,6.68573063 1.54160335,8.11799063 C1.50920335,8.67815063 1.29167335,8.96138063 0.889013351,8.96759063 L0.889013351,8.96759063 Z" id="Path" fill="#4A5B6D"></path>
                    <path d="M3.70043335,8.03087063 C3.38786335,8.03087063 3.10742335,7.81262063 3.04055335,7.49465063 C2.84012335,6.54164063 2.99834335,5.55209063 3.48596335,4.70825063 C3.97358335,3.86441063 4.75199335,3.23315063 5.67773335,2.93093063 C6.03224335,2.81528063 6.41321335,3.00878063 6.52895335,3.36311063 C6.64460335,3.71753063 6.45110335,4.09859063 6.09677335,4.21433063 C5.48783335,4.41305063 4.97573335,4.82840063 4.65488335,5.38370063 C4.33403335,5.93900063 4.22990335,6.58997063 4.36175335,7.21682063 C4.30478335,7.75592063 4.08437335,8.02727063 3.70043335,8.03087063 L3.70043335,8.03087063 Z" id="Path" fill="#4A5B6D"></path>
                    <path d="M26.3178328,8.96759063 C25.9151728,8.96138063 25.6977328,8.67824063 25.6653328,8.11799063 C26.0485528,6.68564063 25.8510028,5.18984063 25.1091328,3.90608063 C24.3714028,2.62916063 23.1812428,1.71314063 21.7581628,1.32659063 C21.3984328,1.22885063 21.1860328,0.857960634 21.2837728,0.498230634 C21.3814228,0.138320634 21.7527628,-0.0738093659 22.1120428,0.0237506341 C23.8813528,0.504350634 25.3608628,1.64321063 26.2781428,3.23063063 C27.2002828,4.82660063 27.4458928,6.68618063 26.9695228,8.46692063 C26.8887928,8.76860063 26.6160028,8.96759063 26.3178328,8.96759063 L26.3178328,8.96759063 Z" id="Path" fill="#4A5B6D"></path>
                    <path d="M23.5065028,8.03087063 C23.1225628,8.02727063 22.9021528,7.75592063 22.8451828,7.21691063 C22.9770328,6.58997063 22.8729928,5.93900063 22.5520528,5.38370063 C22.2312028,4.82840063 21.7191028,4.41314063 21.1101628,4.21433063 C20.7557428,4.09859063 20.5622428,3.71753063 20.6778928,3.36311063 C20.7935428,3.00887063 21.1746028,2.81510063 21.5290228,2.93093063 C22.4547628,3.23315063 23.2332628,3.86432063 23.7208828,4.70816063 C24.2085028,5.55200063 24.3666328,6.54155063 24.1662928,7.49456063 C24.0995128,7.81262063 23.8189828,8.03087063 23.5065028,8.03087063 L23.5065028,8.03087063 Z" id="Path" fill="#4A5B6D"></path>
                </g>
            </g>
        </g>
    </g>
</svg>