<?xml version="1.0" encoding="UTF-8"?>
<svg width="20px" height="24px" viewBox="0 0 20 24" version="1.1" xmlns="http://www.w3.org/2000/svg" xmlns:xlink="http://www.w3.org/1999/xlink">
    <title>Icons/Notifications-thin</title>
    <g id="1.0-Style-Guide" stroke="none" stroke-width="1" fill="none" fill-rule="evenodd">
        <g id="Icons" transform="translate(-651.000000, -211.000000)" fill-rule="nonzero" stroke="#4A5B6D" stroke-width="1.2">
            <g id="Group" transform="translate(650.000000, 212.000000)">
                <g id="Group-2" transform="translate(2.000000, 0.000000)">
                    <path d="M12.9379704,18.0005344 C12.6915669,19.9733145 11.0086221,21.4997052 8.96901857,21.4997052 C6.92941509,21.4997052 5.24647025,19.9733145 5.00006671,18.0005344 Z" id="Path-3"></path>
                    <path d="M11.5288609,2.06505615 C11.5977079,2.40734389 11.5950243,2.74740859 11.5310955,3.06980558 C13.7091825,3.9834454 15.2303705,6.06530853 15.2303705,8.48713896 L15.2303705,10.7424885 C15.2303705,11.9606103 15.7958089,13.1160358 16.7738405,13.8961408 L17.199126,14.2353169 C17.7066442,14.6401013 18,15.2396549 18,15.8717558 L18,15.8929971 C18,17.0566451 17.013924,18 15.7974178,18 L2.20258217,18 C0.986076076,18 0,17.0566451 0,15.8929971 C0,15.2487339 0.30479689,14.6390735 0.828940301,14.2346317 L1.2656669,13.8975112 C2.27587647,13.1180914 2.8633032,11.9431376 2.8633032,10.7015476 L2.8633032,8.48713896 C2.8633032,6.09389675 4.34869383,4.03264299 6.48562767,3.10112367 C6.48299664,3.09465905 6.48125851,3.08623903 6.47955993,3.07780099 C6.19929465,1.68580712 7.10259176,0.330578588 8.49684819,0.0508788228 C9.89110455,-0.22882087 11.2485956,0.672779412 11.5288609,2.06505615 Z" id="Path-2"></path>
                </g>
            </g>
        </g>
    </g>
</svg>