
<svg width="20px" height="16px" viewBox="0 0 20 16" version="1.1" xmlns="http://www.w3.org/2000/svg" xmlns:xlink="http://www.w3.org/1999/xlink">
    <path d="M11.8828125,14.4440234 L8.1171875,14.4440234 C7.79359375,14.4440234 7.53125,14.7063672 7.53125,15.0299609 C7.53125,15.3535547 7.79359375,15.6158984 8.1171875,15.6158984 L11.8828125,15.6158984 C12.2064063,15.6158984 12.46875,15.3535547 12.46875,15.0299609 C12.46875,14.7063672 12.2064063,14.4440234 11.8828125,14.4440234 Z" id="Path" fill="#000000" fill-rule="nonzero"></path>
    <path d="M11.6479687,10.8283203 C11.7710156,10.5814453 11.8405859,10.3032422 11.8405859,10.0086719 C11.8405859,8.99214844 11.0165234,8.16808594 10,8.16808594 C9.70535156,8.16808594 9.42710937,8.23769531 9.18019531,8.36078125 L6.42027344,5.60074219 C6.19148437,5.37191406 5.82046875,5.37191406 5.59164062,5.60074219 C5.3628125,5.82953125 5.3628125,6.20050781 5.59164062,6.429375 L8.35175781,9.18960937 C8.22890625,9.43632812 8.15945312,9.71433594 8.15945312,10.0086719 C8.15945312,11.0251953 8.98351562,11.8492578 10.0000391,11.8492578 C10.2944531,11.8492578 10.5725,11.7797656 10.8192578,11.656875 L11.4685156,12.3062109 C11.6973437,12.5350391 12.0682812,12.5351172 12.2971484,12.3062891 C12.5259766,12.0775 12.5260156,11.7065234 12.2971875,11.4776562 L11.6479687,10.8283203 Z M10,10.6773828 C9.63128906,10.6773828 9.33128906,10.3774219 9.33128906,10.0087109 C9.33128906,9.64 9.63125,9.34 10,9.34 C10.36875,9.34 10.6687109,9.64 10.6687109,10.0087109 C10.6687109,10.3774219 10.3687109,10.6773828 10,10.6773828 L10,10.6773828 Z" id="Shape" fill="#000000" fill-rule="nonzero"></path>
    <path d="M10,0.0091015625 C4.48597656,0.0091015625 0,4.49507813 0,10.0091016 C0,11.7665234 0.463359375,13.4957031 1.34003906,15.0097656 C1.50199219,15.2894531 1.85988281,15.3851172 2.13980469,15.2236719 C2.13992187,15.2235938 3.77070312,14.2821875 3.77070312,14.2821875 C4.0509375,14.1203906 4.14695313,13.7620703 3.98515625,13.4817969 C3.82335937,13.2015625 3.46507812,13.1054297 3.18476562,13.2673438 L2.07804688,13.9062891 C1.5696875,12.8742188 1.26871094,11.7475 1.19210938,10.5950781 L2.46875,10.5950781 C2.79234375,10.5950781 3.0546875,10.3327344 3.0546875,10.0091406 C3.0546875,9.68554688 2.79234375,9.42320313 2.46875,9.42320313 L1.19179688,9.42320313 C1.26960938,8.24171875 1.58074219,7.12308594 2.07972656,6.11292969 L3.18480469,6.7509375 C3.46511719,6.91285156 3.82347656,6.81671875 3.98519531,6.53648438 C4.14699219,6.25621094 4.05097656,5.89785156 3.77074219,5.73609375 L2.66703125,5.09882813 C3.30941406,4.14265625 4.13359375,3.31847656 5.08976563,2.67609375 L5.72695313,3.7796875 C5.88875,4.05996094 6.24710938,4.15605469 6.52734375,3.99414063 C6.80757813,3.83230469 6.90359375,3.47398438 6.74179688,3.19375 L6.10382813,2.08878906 C7.11398438,1.58984375 8.23265625,1.27890625 9.4140625,1.20097656 L9.4140625,2.47789062 C9.4140625,2.80148438 9.67640625,3.06382812 10,3.06382812 C10.3235938,3.06382812 10.5859375,2.80148438 10.5859375,2.47789062 L10.5859375,1.20097656 C11.7673438,1.27890625 12.8860156,1.58988281 13.8961719,2.08878906 L13.2582031,3.19375 C13.0964063,3.47398438 13.1924219,3.83234375 13.4726563,3.99414063 C13.7528906,4.15605469 14.11125,4.05996094 14.2730469,3.7796875 L14.9102344,2.67609375 C15.8664063,3.3184375 16.690625,4.14261719 17.3329688,5.09882813 L16.2292969,5.73601563 C15.9490625,5.8978125 15.8530469,6.25613281 16.0148438,6.53640625 C16.1766016,6.81664063 16.5349219,6.91277344 16.8152344,6.75085938 L17.9203125,6.11285156 C18.4192578,7.12300781 18.7304297,8.24164063 18.8082422,9.423125 L17.53125,9.423125 C17.2076563,9.423125 16.9453125,9.68546875 16.9453125,10.0090625 C16.9453125,10.3326563 17.2076563,10.595 17.53125,10.595 L18.8078906,10.595 C18.7312891,11.7474219 18.4303125,12.8741406 17.9219531,13.9062109 L16.8152344,13.2672656 C16.5349219,13.1053516 16.1766406,13.2014844 16.0148438,13.4817188 C15.8530469,13.7619922 15.9490625,14.1203516 16.2292969,14.2821094 C16.2292969,14.2821094 17.8600781,15.2235156 17.8601953,15.2235938 C18.1401563,15.3850391 18.4980078,15.2894141 18.6599609,15.0096875 C19.5366406,13.4957031 20,11.7665625 20,10.0091016 C20,4.49507813 15.5140234,0.0091015625 10,0.0091015625 Z" id="Path" fill="#000000" fill-rule="nonzero"></path>
</svg>
