
<svg width="21px" height="21px" viewBox="0 0 21 21" version="1.1" xmlns="http://www.w3.org/2000/svg" xmlns:xlink="http://www.w3.org/1999/xlink">
    <title>Icons/Switch</title>
    <defs>
        <filter id="filter-1">
            <feColorMatrix in="SourceGraphic" type="matrix" values="0 0 0 0 0.701961 0 0 0 0 0.756863 0 0 0 0 0.807843 0 0 0 1.000000 0"></feColorMatrix>
        </filter>
        <filter id="filter-2">
            <feColorMatrix in="SourceGraphic" type="matrix" values="0 0 0 0 0.701961 0 0 0 0 0.756863 0 0 0 0 0.807843 0 0 0 1.000000 0"></feColorMatrix>
        </filter>
    </defs>
    <g id="1.0-Style-Guide" stroke="none" stroke-width="1" fill="none" fill-rule="evenodd">
        <g id="Icons" transform="translate(-542.000000, -300.000000)">
            <g id="Group" transform="translate(545.000000, 300.000000)">
                <g id="Group-2" transform="translate(-2.680000, -0.300000)">
                    <g filter="url(#filter-1)" id="Group">
                        <g transform="translate(0.300000, 0.000000)">
                            <path d="M9.63636364,-4.08264463 C10.0197679,-4.08264463 10.3305785,-3.77183404 10.3305785,-3.38842975 L10.3305785,13.8016529 C10.3305785,14.1850572 10.0197679,14.4958678 9.63636364,14.4958678 C9.25295935,14.4958678 8.94214876,14.1850572 8.94214876,13.8016529 L8.94214876,-3.38842975 C8.94214876,-3.77183404 9.25295935,-4.08264463 9.63636364,-4.08264463 Z" id="Rectangle-2-Copy-3" stroke="#6B7B8A" stroke-width="0.1" fill="#E7205D" transform="translate(9.636364, 5.206612) rotate(-90.000000) translate(-9.636364, -5.206612) "></path>
                            <path d="M17.4572815,-0.492380422 C17.8406858,-0.492380422 18.1514964,-0.181569835 18.1514964,0.201834454 L18.1514964,6.04991861 C18.1514964,6.43332289 17.8406858,6.74413348 17.4572815,6.74413348 C17.0738772,6.74413348 16.7630666,6.43332289 16.7630666,6.04991861 L16.7630666,0.201834454 C16.7630666,-0.181569835 17.0738772,-0.492380422 17.4572815,-0.492380422 Z" id="Rectangle-2" stroke="#6B7B8A" stroke-width="0.1" fill="#E7205D" transform="translate(17.457281, 3.125877) rotate(-45.000000) translate(-17.457281, -3.125877) "></path>
                            <path d="M17.334502,3.83938558 C17.7179063,3.83938558 18.0287169,4.15019617 18.0287169,4.53360046 L18.0287169,10.3816846 C18.0287169,10.7650889 17.7179063,11.0758995 17.334502,11.0758995 C16.9510978,11.0758995 16.6402872,10.7650889 16.6402872,10.3816846 L16.6402872,4.53360046 C16.6402872,4.15019617 16.9510978,3.83938558 17.334502,3.83938558 Z" id="Rectangle-2-Copy" stroke="#6B7B8A" stroke-width="0.1" fill="#E7205D" transform="translate(17.334502, 7.457643) rotate(-135.000000) translate(-17.334502, -7.457643) "></path>
                        </g>
                    </g>
                    <g filter="url(#filter-2)" id="Group">
                        <g transform="translate(10.500000, 15.450000) scale(-1, 1) translate(-10.500000, -15.450000) translate(0.000000, 9.950000)">
                            <path d="M10.25,-4.55 C10.6365993,-4.55 10.95,-4.23659932 10.95,-3.85 L10.95,14.35 C10.95,14.7365993 10.6365993,15.05 10.25,15.05 C9.86340068,15.05 9.55,14.7365993 9.55,14.35 L9.55,-3.85 C9.55,-4.23659932 9.86340068,-4.55 10.25,-4.55 Z" id="Rectangle-2-Copy-3" stroke="#6B7B8A" stroke-width="0.1" fill="#E7205D" transform="translate(10.250000, 5.250000) rotate(-90.000000) translate(-10.250000, -5.250000) "></path>
                            <path d="M17.5610922,-0.496483592 C17.9476915,-0.496483592 18.2610922,-0.183082917 18.2610922,0.203516408 L18.2610922,6.10033459 C18.2610922,6.48693392 17.9476915,6.80033459 17.5610922,6.80033459 C17.1744928,6.80033459 16.8610922,6.48693392 16.8610922,6.10033459 L16.8610922,0.203516408 C16.8610922,-0.183082917 17.1744928,-0.496483592 17.5610922,-0.496483592 Z" id="Rectangle-2" stroke="#6B7B8A" stroke-width="0.1" fill="#E7205D" transform="translate(17.561092, 3.151926) rotate(-45.000000) translate(-17.561092, -3.151926) "></path>
                            <path d="M17.4372896,3.87138046 C17.8238889,3.87138046 18.1372896,4.18478114 18.1372896,4.57138046 L18.1372896,10.4681986 C18.1372896,10.854798 17.8238889,11.1681986 17.4372896,11.1681986 C17.0506902,11.1681986 16.7372896,10.854798 16.7372896,10.4681986 L16.7372896,4.57138046 C16.7372896,4.18478114 17.0506902,3.87138046 17.4372896,3.87138046 Z" id="Rectangle-2-Copy" stroke="#6B7B8A" stroke-width="0.1" fill="#E7205D" transform="translate(17.437290, 7.519790) rotate(-135.000000) translate(-17.437290, -7.519790) "></path>
                        </g>
                    </g>
                </g>
            </g>
        </g>
    </g>
</svg>
