<?xml version="1.0" encoding="UTF-8"?>
<svg width="22px" height="22px" viewBox="0 0 22 22" version="1.1" xmlns="http://www.w3.org/2000/svg" xmlns:xlink="http://www.w3.org/1999/xlink">
    <title>Icons/Target</title>
    <g id="1.0-Style-Guide" stroke="none" stroke-width="1" fill="none" fill-rule="evenodd">
        <g id="Icons" transform="translate(-111.000000, -300.000000)">
            <g id="Group" transform="translate(112.000000, 301.000000)">
                <g id="Group-8" transform="translate(-1.000000, -1.000000)">
                    <rect id="Rectangle" stroke="#72D500" stroke-width="1.5" x="3.5" y="3.25" width="15" height="15" rx="6.75"></rect>
                    <path d="M11,0 C11.4142136,-7.6089797e-17 11.75,0.335786438 11.75,0.75 L11.75,6.25 C11.75,6.66421356 11.4142136,7 11,7 C10.5857864,7 10.25,6.66421356 10.25,6.25 L10.25,0.75 C10.25,0.335786438 10.5857864,7.6089797e-17 11,0 Z" id="Rectangle" fill="#72D500"></path>
                    <path d="M11,14.5 C11.4142136,14.5 11.75,14.8357864 11.75,15.25 L11.75,20.75 C11.75,21.1642136 11.4142136,21.5 11,21.5 C10.5857864,21.5 10.25,21.1642136 10.25,20.75 L10.25,15.25 C10.25,14.8357864 10.5857864,14.5 11,14.5 Z" id="Rectangle" fill="#72D500"></path>
                    <path d="M3.75,7.25 C4.16421356,7.25 4.5,7.58578644 4.5,8 L4.5,13.5 C4.5,13.9142136 4.16421356,14.25 3.75,14.25 C3.33578644,14.25 3,13.9142136 3,13.5 L3,8 C3,7.58578644 3.33578644,7.25 3.75,7.25 Z" id="Rectangle" fill="#72D500" transform="translate(3.750000, 10.750000) rotate(-90.000000) translate(-3.750000, -10.750000) "></path>
                    <path d="M18.25,7.25 C18.6642136,7.25 19,7.58578644 19,8 L19,13.5 C19,13.9142136 18.6642136,14.25 18.25,14.25 C17.8357864,14.25 17.5,13.9142136 17.5,13.5 L17.5,8 C17.5,7.58578644 17.8357864,7.25 18.25,7.25 Z" id="Rectangle" fill="#72D500" transform="translate(18.250000, 10.750000) rotate(-90.000000) translate(-18.250000, -10.750000) "></path>
                </g>
            </g>
        </g>
    </g>
</svg>
