
<svg width="20px" height="14px" viewBox="-1 -0.5 20 13" version="1.1" xmlns="http://www.w3.org/2000/svg" xmlns:xlink="http://www.w3.org/1999/xlink">
    <g>
        <path d="M0.1,4 L4.95857864,4 C4.98510029,4 5.01053568,4.01053568 5.02928932,4.02928932 L6.97071068,5.97071068 C6.98946432,5.98946432 7.01489971,6 7.04142136,6 L10.9585786,6 C10.9851003,6 11.0105357,5.98946432 11.0292893,5.97071068 L12.9707107,4.02928932 C12.9894643,4.01053568 13.0148997,4 13.0414214,4 L17.9,4 C17.9552285,4 18,4.04477153 18,4.1 L18,11.9 C18,11.9552285 17.9552285,12 17.9,12 L0.1,12 C0.044771525,12 0,11.9552285 0,11.9 L0,4.1 C0,4.04477153 0.044771525,4 0.1,4 Z" id="Rectangle" stroke="#000000" stroke-width="1.1" fill="none"></path>
        <path d="M0.208062485,2 L4.95857864,2 C4.98510029,2 5.01053568,1.98946432 5.02928932,1.97071068 L6.97071068,0.0292893219 C6.98946432,0.010535684 7.01489971,-8.8817842e-16 7.04142136,-8.8817842e-16 L10.9585786,-8.8817842e-16 C10.9851003,-8.8817842e-16 11.0105357,0.010535684 11.0292893,0.0292893219 L12.9707107,1.97071068 C12.9894643,1.98946432 13.0148997,2 13.0414214,2 L17.7919375,2 C17.847166,2 17.8919375,2.04477153 17.8919375,2.1 C17.8919375,2.12270715 17.8842094,2.1447382 17.8700244,2.1624695 L14.0300244,5.9624695 C14.0110472,5.98619103 13.9823159,6 13.9519375,6 L4.04806248,6 C4.01768411,6 3.98895282,5.98619103 3.9699756,5.9624695 L0.129975604,2.1624695 C0.095474649,2.11934331 0.102466786,2.05641407 0.14559298,2.02191312 C0.163324285,2.00772808 0.185355335,2 0.208062485,2 Z" id="Rectangle-Copy-12" stroke="#000000" stroke-width="1.1" fill="none" transform="translate(8.999998, 3.000000) scale(-1, 1) rotate(-180.000000) translate(-8.999998, -3.000000) "></path>
    </g>
</svg>
