<?xml version="1.0" encoding="UTF-8"?>
<svg width="90px" height="22px" viewBox="-1 0 90 20" version="1.1" xmlns="http://www.w3.org/2000/svg">
    <path d="M82.4376182,0.0346961802 C81.3676627,0.188954952 80.4642483,0.914238781 79.980856,1.88088105 L77.361265,7.11937773 C76.5218252,8.79792379 75.1604874,10.1588884 73.4816077,10.997773 L73.47755,10.9998448 C71.0367598,12.2195854 68.1642059,12.2195854 65.7233293,10.9998448 L63.5721946,9.92486743 C63.1842893,9.73107283 62.7729008,10.1424871 62.9668103,10.5302489 L66.6068002,17.8090704 C67.0312254,18.8431307 67.9764262,19.6049291 69.1160545,19.7747259 C69.1354799,19.7776609 69.1545601,19.7809412 69.1738992,19.7835309 C69.3137627,19.801745 69.4555255,19.8143481 69.6004828,19.814093 C69.7454401,19.8143481 69.8872029,19.801745 70.0270664,19.7835309 C70.0464919,19.7809412 70.0654857,19.7776609 70.0848248,19.7747259 C71.2244531,19.6049291 72.1697402,18.8431307 72.5940791,17.8090704 L75.1516812,12.6947921 C75.9910347,11.0161598 77.3524588,9.65528145 79.0313384,8.81631054 L84.3621223,6.15239017 C85.4567698,5.60536284 86.1482306,4.48696517 86.1482306,3.26342637 L86.1482306,3.22976049 C86.1482306,1.28801633 84.4343851,-0.253103901 82.4376182,0.0346961802" id="Fill-1" stroke="#2E374D" stroke-width="2" fill="#2E374D"></path>
    <path d="M39.2888825,10.999849 L39.2849108,10.9979499 C37.6059305,10.1588931 36.2445111,8.79792907 35.4050209,7.11947013 L32.8471791,2.00484906 C32.4227284,0.970875533 31.4773846,0.209163865 30.3377743,0.0393670776 C30.3185204,0.0364321052 30.2993527,0.0332381646 30.2800124,0.030648483 C30.1400542,0.0123480667 29.9983692,-0.000255050222 29.8534033,0 C29.7085236,-0.000255050222 29.5667523,0.0123480667 29.4267941,0.030648483 C29.4074538,0.0332381646 29.3883725,0.0364321052 29.3691185,0.0393670776 C28.2295083,0.209163865 27.2841644,0.970875533 26.8597138,2.00484906 L24.3018719,7.11929748 C23.4624681,8.79792907 22.1009624,10.1588931 20.4218957,10.9979499 C17.9809591,12.2175172 15.1082329,12.2175172 12.6672962,10.9979499 C10.9883159,10.1588931 9.62681015,8.79792907 8.78740632,7.11938381 L6.16765822,1.88106228 C5.6842369,0.914334153 4.78068197,0.188964349 3.71066225,0.0347919735 C1.71377562,-0.253094293 0,1.2880252 0,3.22976843 L0,3.26343429 C0,4.48697251 0.691502291,5.60536965 1.78612909,6.15239671 L7.11723272,8.81631581 C8.79621306,9.65528631 10.1577188,11.0162503 10.9971227,12.6947956 L13.5248316,17.7491634 C13.9403028,18.8213779 14.9099084,19.614252 16.0834505,19.7788695 C16.0913075,19.780078 16.0989918,19.7813728 16.1066762,19.7824087 C16.2489656,19.8013134 16.3930681,19.8143481 16.5406243,19.814093 C16.5420057,19.814093 16.5433872,19.8138302 16.544596,19.8138302 C16.5460638,19.8138302 16.5472725,19.814093 16.548654,19.814093 C16.6962101,19.8143481 16.8403127,19.8013134 16.9825158,19.7824087 C16.9903728,19.7813728 16.9980571,19.780078 17.0058277,19.7788695 C18.1792835,19.614252 19.1490618,18.8213779 19.5644466,17.7491634 L22.0921556,12.6947956 C22.9315594,11.0162503 24.2930652,9.65528631 25.9720455,8.81631581 L25.9761035,8.81433039 C28.4170402,7.59459037 31.2897664,7.59459037 33.7307893,8.81433039 L33.7348473,8.81631581 C35.413914,9.65528631 36.7753334,11.0162503 37.6147373,12.6948819 L40.1724928,17.809244 C40.5970298,18.8432175 41.5423736,19.6051018 42.6818975,19.774726 C42.7011515,19.7777473 42.7203191,19.7809412 42.7396594,19.7835309 C42.8796176,19.801745 43.0213026,19.8143481 43.1662686,19.814093 C43.3112345,19.8143481 43.4529195,19.801745 43.5928777,19.7835309 C43.6123044,19.7809412 43.6312993,19.7777473 43.6506396,19.774726 C44.7902499,19.6051018 45.7355937,18.8432175 46.1600444,17.8093303 L49.8002527,10.530426 C49.9941738,10.1424917 49.5827606,9.73107766 49.194832,9.92487216 L47.0435683,10.999849 C44.6026317,12.219589 41.7298191,12.219589 39.2888825,10.999849" id="Fill-3" stroke="#2E374D" stroke-width="2" fill="#2E374D"></path>
    <path d="M59.1872603,1.7271333 C58.727359,0.812085835 57.8517923,0.190307827 56.8544302,0.0380782664 C56.8357118,0.0353226024 56.8171613,0.0320659085 56.7982751,0.0296442644 C56.6618744,0.0113566759 56.523627,0.000250514907 56.3836169,-2.97313881e-12 C56.2435229,0.000250514907 56.1051915,0.0113566759 55.9687908,0.0296442644 C55.9499885,0.0320659085 55.9313541,0.0353226024 55.9126357,0.0380782664 C54.9151896,0.190307827 54.0396229,0.812085835 53.5797216,1.7271333 L53.4729514,1.93965345 C53.3221971,2.3051547 53.2376706,2.70480949 53.2376706,3.12433846 L53.2376706,3.15682189 C53.2376706,4.34042134 53.9100212,5.42247874 54.9742826,5.95164974 C55.8614329,6.39280649 56.9056329,6.39280649 57.7928672,5.95164974 L57.7929511,5.95156623 C58.8570447,5.42239524 59.5293953,4.34050484 59.5293953,3.1569054 L59.5293953,3.12433846 C59.5293953,2.70480949 59.4448688,2.3051547 59.2939467,1.93965345 L59.1872603,1.7271333 Z" id="Fill-5" stroke="#2E374D" stroke-width="2" fill="#2E374D"></path>
</svg>
